<?xml version="1.0" encoding="UTF-8"?>
<svg id="Layer_2" data-name="Layer 2" xmlns="http://www.w3.org/2000/svg" xmlns:xlink="http://www.w3.org/1999/xlink" viewBox="0 0 189.5 68.81">
  <defs>
    <style>
      .cls-1 {
        fill: url(#linear-gradient);
      }

      .cls-1, .cls-2 {
        stroke-width: 0px;
      }

      .cls-2 {
        fill: #fff;
      }
    </style>
    <linearGradient id="linear-gradient" x1="82.96" y1="12.33" x2="106.3" y2="12.33" gradientUnits="userSpaceOnUse">
      <stop offset="0" stop-color="#3372e4"/>
      <stop offset=".5" stop-color="#7425d3"/>
      <stop offset="1" stop-color="#d20c13"/>
    </linearGradient>
  </defs>
  <g id="Layer_1-2" data-name="Layer 1">
    <g>
      <path class="cls-1" d="m106.3,24.65h-5.55v-14.93h5.55v14.93ZM97.41,0h-5.55v24.65h5.55V0Zm-8.9,9.72h-5.55v14.93h5.55v-14.93Z"/>
      <g>
        <path class="cls-2" d="m49.96,54.4c.94-.59,2.07-.89,3.39-.89s2.55.28,3.7.85l.52-1.14c-1.24-.58-2.64-.87-4.19-.87s-3.02.35-4.16,1.05c-1.14.7-2.02,1.67-2.62,2.9-.61,1.23-.91,2.64-.91,4.23s.27,3.11.82,4.35,1.36,2.21,2.45,2.89c1.08.69,2.43,1.03,4.05,1.03.88,0,1.65-.06,2.31-.18.66-.12,1.26-.28,1.82-.49v-1.14c-.58.19-1.2.35-1.85.47-.65.12-1.36.18-2.14.18-1.35,0-2.47-.29-3.38-.87-.9-.58-1.58-1.41-2.03-2.48-.45-1.07-.67-2.32-.67-3.76s.25-2.61.75-3.67c.5-1.05,1.22-1.88,2.16-2.47Z"/>
        <polygon class="cls-2" points="63.87 68.58 72.66 68.58 72.66 67.42 65.17 67.42 65.17 60.76 72.23 60.76 72.23 59.59 65.17 59.59 65.17 53.73 72.66 53.73 72.66 52.57 63.87 52.57 63.87 68.58"/>
        <path class="cls-2" d="m26.01,39.56c0,.42,0,.91.03,1.47.02.56.04,1.11.08,1.65.04.54.06,1.02.08,1.42h-.08l-6.82-13.02h-6.61v18.74h4.49v-8.45c0-.47-.01-1-.04-1.57-.03-.58-.06-1.15-.09-1.72s-.07-1.05-.1-1.46h.1l6.85,13.2h6.64v-18.74h-4.51v8.48Z"/>
        <polygon class="cls-2" points="0 33.97 2.34 34.83 2.34 46.04 0 46.93 0 49.82 9.76 49.82 9.76 46.93 7.43 46.04 7.43 34.83 9.76 33.97 9.76 31.08 0 31.08 0 33.97"/>
        <polygon class="cls-2" points="64.95 45.7 58.89 45.7 58.89 42.15 64.5 42.15 64.5 38.09 58.89 38.09 58.89 35.15 64.95 35.15 64.95 31.08 53.82 31.08 53.82 49.82 64.95 49.82 64.95 45.7"/>
        <path class="cls-2" d="m49.24,45.49c.81-1.45,1.22-3.26,1.22-5.43,0-2.9-.81-5.13-2.44-6.67-1.63-1.54-3.95-2.31-6.98-2.31h-6.48v18.74h6.06c1.99,0,3.73-.36,5.2-1.08,1.47-.72,2.61-1.8,3.42-3.25Zm-5.1-1.15c-.72.89-1.85,1.34-3.39,1.34h-1.13v-10.5h1.47c2.75,0,4.12,1.69,4.12,5.07,0,1.84-.36,3.2-1.08,4.09Z"/>
        <polygon class="cls-2" points="140.37 49.82 151.5 49.82 151.5 45.7 145.44 45.7 145.44 42.15 151.05 42.15 151.05 38.09 145.44 38.09 145.44 35.15 151.5 35.15 151.5 31.08 140.37 31.08 140.37 49.82"/>
        <path class="cls-2" d="m81.46,39.49c.24-.78.37-1.6.37-2.45,0-1.91-.59-3.38-1.77-4.41-1.18-1.03-2.96-1.55-5.34-1.55h-6.48v18.74h5.07v-6.22h1.42c1.33,0,2.45-.18,3.36-.54.91-.36,1.64-.85,2.19-1.47s.95-1.32,1.19-2.1Zm-5.43-.52c-.49.34-1.07.51-1.73.51h-1v-4.3h1.31c.73,0,1.28.18,1.63.55.35.37.52.85.52,1.44,0,.86-.25,1.46-.73,1.8Z"/>
        <path class="cls-2" d="m168.11,39.56c0,.42,0,.91.03,1.47.02.56.04,1.11.08,1.65.04.54.06,1.02.08,1.42h-.08l-6.82-13.02h-6.61v18.74h4.49v-8.45c0-.47-.01-1-.04-1.57-.03-.58-.06-1.15-.09-1.72s-.07-1.05-.1-1.46h.1l6.85,13.2h6.64v-18.74h-4.51v8.48Z"/>
        <polygon class="cls-2" points="175.3 31.08 175.3 35.23 179.87 35.23 179.87 49.82 184.93 49.82 184.93 35.23 189.5 35.23 189.5 31.08 175.3 31.08"/>
        <path class="cls-2" d="m135.79,45.49c.81-1.45,1.22-3.26,1.22-5.43,0-2.9-.81-5.13-2.44-6.67-1.63-1.54-3.95-2.31-6.98-2.31h-6.48v18.74h6.06c1.99,0,3.73-.36,5.2-1.08,1.47-.72,2.61-1.8,3.42-3.25Zm-5.1-1.15c-.72.89-1.85,1.34-3.39,1.34h-1.13v-10.5h1.47c2.75,0,4.12,1.69,4.12,5.07,0,1.84-.36,3.2-1.08,4.09Z"/>
        <path class="cls-2" d="m139.18,59.85c.65-.7.98-1.66.98-2.88,0-1.6-.48-2.73-1.45-3.4-.96-.67-2.4-1-4.32-1h-3.99v16.02h1.3v-6.91h3.81l4.08,6.91h1.55l-4.4-7.27c.97-.28,1.78-.77,2.43-1.47Zm-4.45.71h-3.03v-6.84h2.58c1.53,0,2.66.24,3.41.73.75.49,1.12,1.34,1.12,2.57,0,1.15-.36,2.03-1.07,2.64-.71.61-1.72.91-3.02.91Z"/>
        <polygon class="cls-2" points="84.82 49.82 95.94 49.82 95.94 45.7 89.88 45.7 89.88 42.15 95.5 42.15 95.5 38.09 89.88 38.09 89.88 35.15 95.94 35.15 95.94 31.08 84.82 31.08 84.82 49.82"/>
        <path class="cls-2" d="m90.27,62.73c0,.63,0,1.3.02,2.02.02.72.04,1.31.07,1.77h-.07l-9.26-13.95h-1.39v16.02h1.23v-10.12c0-.7-.01-1.38-.03-2.03s-.05-1.27-.08-1.85h.07l9.29,14h1.39v-16.02h-1.23v10.16Z"/>
        <path class="cls-2" d="m117.07,31.08h-4.51v8.48c0,.42,0,.91.03,1.47.02.56.04,1.11.08,1.65.04.54.06,1.02.08,1.42h-.08l-6.82-13.02h-6.61v18.74h4.49v-8.45c0-.47-.01-1-.04-1.57-.03-.58-.06-1.15-.09-1.72s-.07-1.05-.1-1.46h.1l6.85,13.2h6.64v-18.74Z"/>
        <polygon class="cls-2" points="97.24 53.73 102.4 53.73 102.4 68.58 103.7 68.58 103.7 53.73 108.86 53.73 108.86 52.57 97.24 52.57 97.24 53.73"/>
        <polygon class="cls-2" points="114.63 68.58 123.42 68.58 123.42 67.42 115.93 67.42 115.93 60.76 123 60.76 123 59.59 115.93 59.59 115.93 53.73 123.42 53.73 123.42 52.57 114.63 52.57 114.63 68.58"/>
      </g>
    </g>
  </g>
</svg>